<?xml version="1.0" encoding="utf-8"?>
<!-- Generator: Adobe Illustrator 18.0.0, SVG Export Plug-In . SVG Version: 6.00 Build 0)  -->
<!DOCTYPE svg PUBLIC "-//W3C//DTD SVG 1.1//EN" "http://www.w3.org/Graphics/SVG/1.1/DTD/svg11.dtd">
<svg version="1.1" id="Layer_1" xmlns="http://www.w3.org/2000/svg" xmlns:xlink="http://www.w3.org/1999/xlink" x="0px" y="0px"
	 viewBox="0 0 16 16" enable-background="new 0 0 16 16" xml:space="preserve">
<path fill="#BF3026" d="M8,10c-0.6,0-1-0.4-1-1V4c0-0.6,0.4-1,1-1c0.6,0,1,0.4,1,1v5C9,9.6,8.6,10,8,10L8,10z M8,1
	C6.1,1,4.4,1.7,3.1,3.1C1.7,4.4,1,6.1,1,8c0,1.9,0.7,3.6,2.1,4.9C4.4,14.3,6.1,15,8,15s3.6-0.7,4.9-2.1C14.3,11.6,15,9.9,15,8
	c0-1.9-0.7-3.6-2.1-4.9C11.6,1.7,9.9,1,8,1 M8,0c4.4,0,8,3.6,8,8c0,4.4-3.6,8-8,8s-8-3.6-8-8C0,3.6,3.6,0,8,0L8,0z M8,13
	c0.6,0,1-0.4,1-1c0-0.6-0.4-1-1-1c-0.6,0-1,0.4-1,1C7,12.6,7.4,13,8,13z"/>
</svg>
