<?xml version="1.0" encoding="UTF-8" standalone="no"?>
<svg width="10px" height="12px" viewBox="0 0 10 12" version="1.1" xmlns="http://www.w3.org/2000/svg" xmlns:xlink="http://www.w3.org/1999/xlink">
    <!-- Generator: Sketch 3.6.1 (26313) - http://www.bohemiancoding.com/sketch -->
    <title>text-file</title>
    <desc>Created with Sketch.</desc>
    <defs></defs>
    <g id="Page-1" stroke="none" stroke-width="1" fill="none" fill-rule="evenodd">
        <g id="text-file" fill="#138078">
            <g id="Group">
                <path d="M9.84379781,3.55704918 C9.73980874,3.30745902 9.61508197,3.10991803 9.46939891,2.96428962 L7.03557377,0.530382514 C6.88989071,0.38489071 6.69240437,0.260027322 6.44275956,0.155956284 C6.19322404,0.0519945355 5.96439891,0 5.75647541,0 L0.763743169,0 C0.555765027,0 0.378934426,0.0727595628 0.233333333,0.218387978 C0.087704918,0.363934426 0.0149180328,0.540765027 0.0149180328,0.748825137 L0.0149180328,11.2329508 C0.0149180328,11.4410656 0.087704918,11.6178962 0.233333333,11.7634699 C0.378961749,11.9089617 0.555765027,11.9818033 0.763770492,11.9818033 L9.25101093,11.9818033 C9.45896175,11.9818033 9.63568306,11.9089617 9.78125683,11.7634699 C9.9268306,11.6177869 9.99967213,11.4410656 9.99967213,11.2329508 L9.99967213,4.24352459 C9.9997541,4.0354918 9.94775956,3.80663934 9.84379781,3.55704918 L9.84379781,3.55704918 Z M6.00590164,1.06081967 C6.15663934,1.11281421 6.26322404,1.17008197 6.32568306,1.23240437 L8.76737705,3.67409836 C8.82964481,3.73655738 8.88688525,3.84311475 8.93885246,3.99393443 L6.00590164,3.99393443 L6.00590164,1.06081967 L6.00590164,1.06081967 Z M9.0013388,10.9833607 L1.01336066,10.9833607 L1.01336066,0.998497268 L5.00729508,0.998497268 L5.00729508,4.24360656 C5.00729508,4.45163934 5.08002732,4.6284153 5.22565574,4.77404372 C5.3713388,4.91959016 5.54806011,4.99245902 5.75617486,4.99245902 L9.0013388,4.99245902 L9.0013388,10.9833607 L9.0013388,10.9833607 Z" id="Shape"></path>
                <path d="M7.75327869,7.98784153 L2.26147541,7.98784153 C2.18871585,7.98784153 2.12887978,8.01120219 2.08204918,8.05795082 C2.03535519,8.10469945 2.01188525,8.16453552 2.01188525,8.23726776 L2.01188525,8.73655738 C2.01188525,8.8095082 2.03527322,8.86931694 2.08204918,8.91606557 C2.1289071,8.96281421 2.18874317,8.98620219 2.26147541,8.98620219 L7.75327869,8.98620219 C7.82603825,8.98620219 7.88590164,8.96281421 7.93262295,8.91606557 C7.97934426,8.86931694 8.00273224,8.8095082 8.00273224,8.73655738 L8.00273224,8.23726776 C8.00273224,8.16453552 7.97937158,8.10467213 7.93262295,8.05795082 C7.88576503,8.01131148 7.82592896,7.98784153 7.75327869,7.98784153 L7.75327869,7.98784153 Z" id="Shape"></path>
                <path d="M2.01185792,6.2404918 L2.01185792,6.73969945 C2.01185792,6.81254098 2.0352459,6.87237705 2.08202186,6.91912568 C2.12887978,6.96587432 2.18871585,6.98923497 2.26144809,6.98923497 L7.75325137,6.98923497 C7.82601093,6.98923497 7.88587432,6.96587432 7.93259563,6.91912568 C7.97931694,6.87237705 8.00270492,6.81254098 8.00270492,6.73969945 L8.00270492,6.2404918 C8.00270492,6.16773224 7.97934426,6.10786885 7.93259563,6.06095628 C7.8857377,6.0142623 7.82590164,5.99090164 7.75325137,5.99090164 L2.26144809,5.99090164 C2.18871585,5.99090164 2.12887978,6.0142623 2.08202186,6.06095628 C2.03532787,6.10773224 2.01185792,6.16754098 2.01185792,6.2404918 Z" id="Shape"></path>
            </g>
        </g>
    </g>
</svg>